REM DIRINDEX 1\2,1\3,1\4,1\5
REM DIRNAME cjc004,folder01,folder02,folder03,folder04
TITLE ""
FILE "1Q_t_0820-0829.mp3" MP3
  TRACK 01 AUDIO
    TITLE "3:cjc004_3363"
    INDEX 01 00:00:00
  TRACK 02 AUDIO
    TITLE "0:"
    INDEX 01 00:01:05
  TRACK 03 AUDIO
    TITLE "4:cjc004_3364"
    INDEX 01 00:01:32
  TRACK 04 AUDIO
    TITLE "0:"
    INDEX 01 00:02:49
  TRACK 05 AUDIO
    TITLE "5:cjc004_3365"
    INDEX 01 00:02:73
  TRACK 06 AUDIO
    TITLE "0:"
    INDEX 01 00:07:05
  TRACK 07 AUDIO
    TITLE "3:cjc004_3366"
    INDEX 01 00:07:70
  TRACK 08 AUDIO
    TITLE "0:"
    INDEX 01 00:09:10
  TRACK 09 AUDIO
    TITLE "4:cjc004_3367"
    INDEX 01 00:09:38
  TRACK 10 AUDIO
    TITLE "0:"
    INDEX 01 00:10:51
  TRACK 11 AUDIO
    TITLE "5:cjc004_3368"
    INDEX 01 00:11:01
  TRACK 12 AUDIO
    TITLE "0:"
    INDEX 01 00:16:08
  TRACK 13 AUDIO
    TITLE "3:cjc004_3369"
    INDEX 01 00:16:61
  TRACK 14 AUDIO
    TITLE "0:"
    INDEX 01 00:18:15
  TRACK 15 AUDIO
    TITLE "4:cjc004_3370"
    INDEX 01 00:18:42
  TRACK 16 AUDIO
    TITLE "0:"
    INDEX 01 00:19:58
  TRACK 17 AUDIO
    TITLE "5:cjc004_3371"
    INDEX 01 00:20:14
  TRACK 18 AUDIO
    TITLE "0:"
    INDEX 01 00:25:60
  TRACK 19 AUDIO
    TITLE "3:cjc004_3372"
    INDEX 01 00:26:38
  TRACK 20 AUDIO
    TITLE "0:"
    INDEX 01 00:27:55
  TRACK 21 AUDIO
    TITLE "4:cjc004_3373"
    INDEX 01 00:28:13
  TRACK 22 AUDIO
    TITLE "0:"
    INDEX 01 00:29:25
  TRACK 23 AUDIO
    TITLE "5:cjc004_3374"
    INDEX 01 00:29:54
  TRACK 24 AUDIO
    TITLE "0:"
    INDEX 01 00:34:06
  TRACK 25 AUDIO
    TITLE "3:cjc004_3375"
    INDEX 01 00:34:63
  TRACK 26 AUDIO
    TITLE "0:"
    INDEX 01 00:36:25
  TRACK 27 AUDIO
    TITLE "4:cjc004_3376"
    INDEX 01 00:36:56
  TRACK 28 AUDIO
    TITLE "0:"
    INDEX 01 00:38:47
  TRACK 29 AUDIO
    TITLE "5:cjc004_3377"
    INDEX 01 00:39:02
  TRACK 30 AUDIO
    TITLE "0:"
    INDEX 01 00:45:04
  TRACK 31 AUDIO
    TITLE "3:cjc004_3378"
    INDEX 01 00:45:55
  TRACK 32 AUDIO
    TITLE "0:"
    INDEX 01 00:46:62
  TRACK 33 AUDIO
    TITLE "4:cjc004_3379"
    INDEX 01 00:47:17
  TRACK 34 AUDIO
    TITLE "0:"
    INDEX 01 00:48:30
  TRACK 35 AUDIO
    TITLE "5:cjc004_3380"
    INDEX 01 00:48:63
  TRACK 36 AUDIO
    TITLE "0:"
    INDEX 01 00:52:73
  TRACK 37 AUDIO
    TITLE "3:cjc004_3381"
    INDEX 01 00:53:55
  TRACK 38 AUDIO
    TITLE "0:"
    INDEX 01 00:54:74
  TRACK 39 AUDIO
    TITLE "4:cjc004_3382"
    INDEX 01 00:55:24
  TRACK 40 AUDIO
    TITLE "0:"
    INDEX 01 00:56:63
  TRACK 41 AUDIO
    TITLE "5:cjc004_3383"
    INDEX 01 00:57:11
  TRACK 42 AUDIO
    TITLE "0:"
    INDEX 01 01:02:28
  TRACK 43 AUDIO
    TITLE "3:cjc004_3384"
    INDEX 01 01:03:12
  TRACK 44 AUDIO
    TITLE "0:"
    INDEX 01 01:04:31
  TRACK 45 AUDIO
    TITLE "4:cjc004_3385"
    INDEX 01 01:04:60
  TRACK 46 AUDIO
    TITLE "0:"
    INDEX 01 01:06:28
  TRACK 47 AUDIO
    TITLE "5:cjc004_3386"
    INDEX 01 01:06:55
  TRACK 48 AUDIO
    TITLE "0:"
    INDEX 01 01:11:39
  TRACK 49 AUDIO
    TITLE "3:cjc004_3387"
    INDEX 01 01:12:24
  TRACK 50 AUDIO
    TITLE "0:"
    INDEX 01 01:13:32
  TRACK 51 AUDIO
    TITLE "4:cjc004_3388"
    INDEX 01 01:13:61
  TRACK 52 AUDIO
    TITLE "0:"
    INDEX 01 01:15:13
  TRACK 53 AUDIO
    TITLE "5:cjc004_3389"
    INDEX 01 01:15:40
  TRACK 54 AUDIO
    TITLE "0:"
    INDEX 01 01:20:32
  TRACK 55 AUDIO
    TITLE "3:cjc004_3390"
    INDEX 01 01:21:10
  TRACK 56 AUDIO
    TITLE "0:"
    INDEX 01 01:22:27
  TRACK 57 AUDIO
    TITLE "4:cjc004_3391"
    INDEX 01 01:22:54
  TRACK 58 AUDIO
    TITLE "0:"
    INDEX 01 01:24:00
  TRACK 59 AUDIO
    TITLE "5:cjc004_3392"
    INDEX 01 01:24:24
  TRACK 60 AUDIO
    TITLE "0:"
    INDEX 01 01:29:54
